<?xml version="1.0" encoding="UTF-8"?>
<svg xmlns="http://www.w3.org/2000/svg" version="1.1" viewBox="0 0 1231 215">
  <defs>
    <style>
      .cls-1 {
        stroke: #4d4d4d;
      }

      .cls-1, .cls-2, .cls-3, .cls-4, .cls-5, .cls-6, .cls-7, .cls-8 {
        fill: none;
      }

      .cls-1, .cls-2, .cls-3, .cls-4, .cls-6, .cls-7, .cls-8 {
        stroke-linecap: round;
        stroke-linejoin: round;
      }

      .cls-1, .cls-3, .cls-4, .cls-6 {
        stroke-width: 1.5px;
      }

      .cls-9 {
        fill: #071013;
      }

      .cls-10 {
        fill: #28988c;
      }

      .cls-2 {
        stroke-width: 1.25px;
      }

      .cls-2, .cls-4, .cls-6, .cls-7 {
        stroke: #344154;
      }

      .cls-11, .cls-12 {
        fill: #fff;
        stroke-miterlimit: 10;
      }

      .cls-11, .cls-3 {
        stroke: #329393;
      }

      .cls-12 {
        stroke: #28988c;
      }

      .cls-4 {
        stroke-dasharray: 0 8;
      }

      .cls-13 {
        fill: #c1dff0;
      }

      .cls-14 {
        fill: #333;
      }

      .cls-15 {
        display: none;
      }

      .cls-8 {
        stroke: #071013;
        stroke-dasharray: 0 6;
        stroke-width: 3px;
      }

      .cls-16 {
        fill: #e6e6e6;
      }
    </style>
  </defs>
  <!-- Generator: Adobe Illustrator 28.7.1, SVG Export Plug-In . SVG Version: 1.2.0 Build 142)  -->
  <g>
    <g id="_レイヤー_2" data-name="レイヤー_2" class="cls-15">
      <rect class="cls-16" x="1" width="1231" height="215"/>
    </g>
    <g id="_レイヤー_1" data-name="レイヤー_1">
      <g>
        <line class="cls-8" x1="219.53" y1="105.98" x2="261.65" y2="105.98"/>
        <polygon class="cls-9" points="256.18 112.73 255.05 111.52 261.01 105.98 255.05 100.44 256.18 99.23 263.44 105.98 256.18 112.73"/>
      </g>
      <g>
        <line class="cls-8" x1="468.95" y1="105.98" x2="511.06" y2="105.98"/>
        <polygon class="cls-9" points="505.6 112.73 504.47 111.52 510.43 105.98 504.47 100.44 505.6 99.23 512.85 105.98 505.6 112.73"/>
      </g>
      <g>
        <line class="cls-8" x1="723.46" y1="105.98" x2="765.57" y2="105.98"/>
        <polygon class="cls-9" points="760.1 112.73 758.98 111.52 764.94 105.98 758.98 100.44 760.1 99.23 767.36 105.98 760.1 112.73"/>
      </g>
      <g>
        <line class="cls-8" x1="979.24" y1="107.25" x2="1014.35" y2="107.25"/>
        <polygon class="cls-9" points="1008.88 114 1007.76 112.79 1013.72 107.25 1007.76 101.71 1008.88 100.5 1016.14 107.25 1008.88 114"/>
      </g>
      <g>
        <polygon class="cls-12" points="173.68 200.73 11.59 200.73 11.59 8.77 173.68 8.77 215.84 107.15 173.68 200.73"/>
        <g>
          <rect class="cls-5" x="25.42" y="42.74" width="162.78" height="38.2"/>
          <path class="cls-14" d="M36.5,67.31l.36-1.66c1.09.32,2.06.49,2.92.49,1.23,0,2.24-.39,3.02-1.17.78-.78,1.2-1.9,1.24-3.36-.04-1.59-.58-2.8-1.61-3.63-1.03-.83-2.69-1.24-5.01-1.24-1.01,0-2.1.17-3.28.51v8.11c0,1.73-1.17,2.59-3.52,2.59-1.23,0-2.25-.44-3.04-1.33-.8-.89-1.19-2.01-1.19-3.37,0-1.49.52-2.88,1.55-4.14,1.03-1.27,2.38-2.25,4.06-2.96v-4.78h-4.62v-1.77h4.56v-4.37h2.21v4.37h5.29v1.77h-5.29v4.06c1.2-.31,2.28-.47,3.24-.47,2.7,0,4.82.6,6.37,1.81,1.55,1.21,2.32,2.83,2.32,4.89.04,1.94-.5,3.49-1.6,4.64-1.1,1.15-2.53,1.73-4.27,1.73-1.48,0-2.71-.24-3.71-.72ZM32.04,58.29c-1.11.54-1.99,1.23-2.65,2.08-.66.85-.99,1.77-.99,2.77s.25,1.68.74,2.18c.49.5,1.01.75,1.56.75.9,0,1.35-.41,1.35-1.24v-6.53ZM47.17,52.03l-1.74,1.24c-1.67-2.19-3.79-4.19-6.34-6.02l1.42-1.26c1.12.71,2.31,1.66,3.58,2.84s2.3,2.25,3.08,3.19Z"/>
          <path class="cls-14" d="M52.25,54.16v14.58h-2.02v-23.54h9.66v8.96h-7.64ZM52.25,49.03h5.67v-2.43h-5.67v2.43ZM57.92,50.3h-5.67v2.44h5.67v-2.44ZM58.12,64.51v.76h-2.04v-8.52h10.85v7.76h-8.81ZM58.12,62.96h6.79v-4.71h-6.79v4.71ZM70.83,68.46h-3.19l-.31-1.89h2.62c.32,0,.6-.1.82-.3.22-.2.34-.42.34-.65v-11.45h-7.81v-8.96h9.87v21.26c0,.54-.24,1.01-.72,1.4s-1.02.59-1.62.59ZM65.27,49.03h5.84v-2.43h-5.84v2.43ZM71.12,50.3h-5.84v2.44h5.84v-2.44Z"/>
          <path class="cls-14" d="M88.35,60.16c-.31.85-.74,1.85-1.32,3-.57,1.14-1.2,2.13-1.89,2.95-.69.82-1.4,1.23-2.14,1.23-.45,0-.85-.11-1.2-.32s-.81-.63-1.38-1.26c-.57-.62-1.09-1.47-1.56-2.56-.47-1.08-.81-2.22-1.02-3.41-.21-1.19-.31-2.34-.31-3.47,0-1.01.09-2.43.26-4.28.22-1.93.38-3.35.5-4.24h2.13c-.11.81-.29,2.22-.54,4.24-.19,1.8-.28,3.22-.28,4.27.03,1.57.18,2.97.47,4.22.29,1.25.76,2.32,1.43,3.22.67.9,1.14,1.34,1.43,1.34.47,0,1.05-.6,1.75-1.79.7-1.19,1.37-2.53,2-4.02l1.66.86ZM97.45,63.85l-2.02.07v-.24c-.07-2.68-.41-5.25-1.01-7.72-.6-2.47-1.62-4.73-3.07-6.8l1.71-1.05c2.92,4.09,4.39,9.34,4.39,15.75Z"/>
          <path class="cls-14" d="M124.52,55.16c-1.92-.79-4.09-2.09-6.51-3.9-2.43-1.81-4.44-3.68-6.05-5.63-1.25,1.73-3.06,3.51-5.43,5.35-2.37,1.84-4.76,3.29-7.18,4.34l-.9-1.48c2.34-1.12,4.64-2.59,6.89-4.39,2.25-1.8,3.93-3.52,5.04-5.17h2.98c1.42,1.84,3.33,3.64,5.72,5.38,2.39,1.74,4.57,3,6.55,3.77l-1.11,1.73ZM119.52,67.15h-15.23v1.35h-2.12v-10.51h19.48v10.43h-2.13v-1.27ZM104.29,65.51h15.23v-5.9h-15.23v5.9ZM119.08,54.28h-14.06v-1.63h14.06v1.63Z"/>
          <path class="cls-14" d="M131.33,58.67c-.45.8-.96,1.72-1.55,2.77-.58,1.04-1.2,2.14-1.86,3.28l-1.73-1.24c.35-.6.73-1.25,1.14-1.94.41-.69.82-1.39,1.23-2.09.41-.7.81-1.39,1.19-2.05.39-.67.74-1.28,1.05-1.84.24-.43.4-.86.46-1.28.06-.42.09-.87.09-1.34,0-.23,0-.48,0-.75,0-.27-.02-.6-.03-.99h-4.08v-2.04h4.08v-4.25h2.32v6.92c.49-.58,1.02-1.11,1.59-1.59.58-.47,1.18-.87,1.8-1.2.63-.33,1.27-.58,1.93-.74.66-.17,1.33-.24,2-.21.82.04,1.57.18,2.24.44s1.28.6,1.81,1.03.99.92,1.38,1.49c.39.57.71,1.17.96,1.82s.44,1.32.57,2.02c.13.7.19,1.4.19,2.09,0,.76-.07,1.5-.2,2.25-.13.74-.32,1.45-.56,2.13-.24.68-.54,1.32-.9,1.92s-.76,1.15-1.22,1.63c-.74.78-1.65,1.39-2.73,1.83-1.08.44-2.39.75-3.92.95l-.53-1.94c1.35-.14,2.52-.45,3.51-.92.99-.47,1.81-1.09,2.46-1.84.65-.76,1.13-1.65,1.44-2.67.31-1.03.47-2.17.47-3.43,0-.81-.11-1.62-.32-2.42-.22-.81-.54-1.53-.98-2.17-.44-.64-.99-1.16-1.65-1.57-.66-.4-1.44-.62-2.33-.63-.78,0-1.51.14-2.19.45-.68.31-1.31.7-1.9,1.18-.58.48-1.12,1.02-1.61,1.61-.49.59-.93,1.17-1.34,1.74v12.93h-2.32v-9.34Z"/>
          <path class="cls-14" d="M169.12,67.67c-2.21.09-4.42.14-6.61.14-1.88,0-3.41-.11-4.6-.32-1.18-.21-2.14-.72-2.88-1.51s-1.1-2.02-1.1-3.66v-8.83h-3.93v-1.77h3.93v-5.66h2.13v5.66h9.7c0-2.28-.08-4.22-.24-5.83l2.09-.16c.17,1.65.26,3.49.26,5.53v.46h4.09v1.77h-4.12c-.04,1.41-.13,2.85-.26,4.33s-.46,2.45-.99,2.94c-.53.49-1.23.74-2.13.74-1.35,0-3.09-.77-5.22-2.31l.8-1.57c1.81,1.21,3.2,1.82,4.17,1.82.63,0,1.03-.38,1.2-1.14s.28-2.36.34-4.81h-9.69v8.8c0,1.12.25,1.93.76,2.44s1.27.83,2.27.97,2.41.21,4.2.21c2.31,0,4.25-.07,5.82-.22v1.98Z"/>
        </g>
        <polyline class="cls-1" points="126.77 146.35 97.08 161.55 67.39 146.35"/>
        <path class="cls-1" d="M126.77,146.35l-29.69-19.84-29.69,19.84v32.83c0,2.56,2.08,4.64,4.64,4.64h50.11c2.56,0,4.64-2.08,4.64-4.64v-32.83Z"/>
        <polyline class="cls-1" points="113.72 153.03 113.72 144.82 80.44 144.82 80.44 153.03"/>
        <path class="cls-10" d="M71.69,172.95v4.31c0,.95.79,1.72,1.76,1.72h46.96c.97,0,1.76-.77,1.76-1.72v-4.31h-50.47Z"/>
      </g>
      <g>
        <polygon class="cls-12" points="425.36 199.73 263.27 199.73 263.27 10.84 425.36 10.84 467.51 107.64 425.36 199.73"/>
        <g>
          <rect class="cls-5" x="309.34" y="41.74" width="115.18" height="38.2"/>
          <path class="cls-14" d="M327.53,65.73c-2.11.41-4.47.62-7.1.62h-1.24c-3.33,0-5.58-.43-6.76-1.3-1.18-.86-1.77-2.1-1.77-3.71,0-1.96.92-3.75,2.77-5.36l1.47,1.09c-1.46,1.43-2.19,2.8-2.19,4.12.05,1.28.66,2.15,1.83,2.62,1.17.47,3.08.69,5.73.64,2.38-.03,4.71-.27,7.01-.72l.26,1.98ZM326.86,48.57c-.46.1-.98.26-1.57.48-.59.22-1.08.42-1.46.61-.39.18-1.57.89-3.54,2.11l-.96-1.31c.41-.38,1.69-1.14,3.85-2.29-2.66.04-6.27.19-10.81.43l-.07-1.89c2.67-.14,6.42-.2,11.26-.2,1.48,0,2.47.01,2.96.04l.35,2.02ZM329.34,46.74l-1.55.69c-.65-1.45-1.3-2.71-1.96-3.78l1.46-.67c.78,1.21,1.47,2.47,2.05,3.77ZM332.68,46.18l-1.55.63c-.6-1.4-1.25-2.64-1.93-3.74l1.43-.69c.62.96,1.3,2.23,2.05,3.79Z"/>
          <path class="cls-14" d="M353.08,67.52h-3.19l-.27-1.81h2.73c.76,0,1.13-.35,1.13-1.04l.03-8.23h-5.2c-1.5,0-2.25-.68-2.25-2.05v-2.25h-3.17c-.34,1.65-1.01,2.89-2.01,3.73-1,.84-2.34,1.49-4.04,1.96l-.65-1.35c1.6-.45,2.75-1.04,3.46-1.76.7-.72,1.16-1.58,1.38-2.57h-5.64v15.49h-2.09v-17.02h5.26l-1.55-3.75h-5.24v-1.61h11.39v-2.2h2.23v2.2h11.5v1.61h-5.13l-1.93,3.75h5.74v14.71c0,.67-.23,1.21-.7,1.61-.46.4-1.06.59-1.79.59ZM340.91,64.68v.7h-1.92v-7.13h10.69v6.42h-8.77ZM340.68,50.61h7.09l1.69-3.75h-10.31l1.54,3.75ZM347.7,59.71h-6.79v3.47h6.79v-3.47ZM353.53,54.86v-2.73s-5.57,0-5.57,0v1.69c0,.69.46,1.04,1.39,1.04h4.18Z"/>
          <path class="cls-14" d="M359.44,49.19v-1.58h8.71v1.58h-8.71ZM362.03,66.59v1.01h-1.97v-8.73h7.27v7.72h-5.3ZM360.4,45.51v-1.55h7.19v1.55h-7.19ZM360.43,52.89v-1.58h6.99v1.58h-6.99ZM360.43,56.55v-1.58h6.99v1.58h-6.99ZM365.39,60.38h-3.33v4.68h3.33v-4.68ZM376.28,61.5c-.66,1.45-1.65,2.73-2.98,3.83s-2.84,1.89-4.54,2.36l-.7-1.44c2.05-.6,3.73-1.7,5.02-3.29s1.94-3.24,1.94-4.94v-4.12h2.09v4.62c0,.51.26,1.23.77,2.15.51.92,1.45,1.92,2.8,3,1.35,1.08,2.8,1.87,4.33,2.36l-1.16,1.58c-1.53-.46-2.98-1.24-4.36-2.33-1.38-1.1-2.45-2.35-3.21-3.77ZM376.39,49.69c-1.3,2.74-3.81,4.61-7.53,5.62l-.62-1.4c2.09-.57,3.75-1.49,4.99-2.78,1.24-1.29,1.86-2.79,1.86-4.49v-3.52h2.04v3.91c.34,1.56,1.28,2.94,2.82,4.14s3.18,2.05,4.93,2.54l-.96,1.55c-1.78-.55-3.33-1.33-4.64-2.34-1.31-1.01-2.27-2.09-2.88-3.22ZM370.72,62.08l-1.73-.59c.79-1.34,1.51-3.07,2.15-5.18l1.81.36c-.67,2.45-1.41,4.25-2.23,5.41ZM370.97,49.71l-1.69-.59c.79-1.29,1.44-2.74,1.94-4.35l1.81.31c-.7,2.1-1.39,3.64-2.06,4.63ZM380.95,61.41l-1.63-.62c.68-1.06,1.49-2.66,2.42-4.79l1.94.47c-1.18,2.36-2.09,4-2.73,4.94ZM381.21,49.4l-1.65-.51c.59-.98,1.28-2.46,2.06-4.43l1.92.54c-1,2.15-1.78,3.62-2.33,4.4Z"/>
        </g>
        <g>
          <g>
            <circle class="cls-6" cx="320.04" cy="120.12" r="10.32" transform="translate(129.6 404) rotate(-76.72)"/>
            <path class="cls-6" d="M320.04,146.31v4.31c0,4.21,3.41,7.62,7.62,7.62h21.53"/>
            <path class="cls-6" d="M327.43,176.69h0c2.07-3.89,3.46-8.09,4.13-12.42"/>
            <path class="cls-6" d="M332,152.63v-4.96c0-6.6-5.35-11.96-11.96-11.96h0c-6.6,0-11.96,5.35-11.96,11.96v10.72c0,6.39,1.57,12.67,4.57,18.31h0"/>
          </g>
          <g>
            <path class="cls-3" d="M349.43,136.34c3.4-3.4,5.51-8.1,5.51-13.27,0-5.18-2.11-9.87-5.51-13.27"/>
            <path class="cls-3" d="M344.51,131.42c2.14-2.14,3.46-5.09,3.46-8.35s-1.33-6.21-3.46-8.35"/>
            <path class="cls-3" d="M338.76,127.25c1.07-1.07,1.73-2.55,1.73-4.18,0-1.63-.66-3.11-1.73-4.18"/>
          </g>
          <g>
            <circle class="cls-6" cx="399.01" cy="120.12" r="10.32" transform="translate(135.34 442.79) rotate(-67.5)"/>
            <path class="cls-6" d="M399.01,146.31v4.31c0,4.21-3.41,7.62-7.62,7.62h-21.53"/>
            <path class="cls-6" d="M391.63,176.69h0c-2.07-3.89-3.46-8.09-4.13-12.42"/>
            <path class="cls-6" d="M387.06,152.63v-4.96c0-6.6,5.35-11.96,11.96-11.96h0c6.6,0,11.96,5.35,11.96,11.96v10.72c0,6.39-1.57,12.67-4.57,18.31h0"/>
          </g>
        </g>
      </g>
      <g>
        <polygon class="cls-12" points="932.07 199.73 769.98 199.73 769.98 10.84 932.07 10.84 974.22 107.64 932.07 199.73"/>
        <g>
          <rect class="cls-5" x="833.94" y="41.74" width="59.06" height="38.2"/>
          <path class="cls-14" d="M847.7,65.4h-2l-.23-1.66h1.46c.32,0,.58-.09.78-.27.2-.18.3-.38.3-.61v-4.85h-3.81v9.66h-2.09v-9.66h-3.66v7.67h-2.04v-9.17h5.7v-3.29h-6.74v-1.55h6.74v-3.16h-3.98c-.56,1.03-1.05,1.8-1.49,2.31l-1.58-.73c1.24-1.69,2.22-3.74,2.93-6.15l1.92.31c-.21.81-.54,1.71-.99,2.69h3.19v-3.55h2.09v3.55h5.95v1.58h-5.95v3.16h6.32v1.55h-6.32v3.29h5.8v6.88c0,.6-.23,1.09-.69,1.45-.46.36-1,.55-1.62.55ZM852.07,61.23v-16.36h2v16.36h-2ZM856.63,67.4h-3.52l-.31-1.85h2.96c.31,0,.57-.1.78-.29.22-.19.32-.44.32-.74v-21.19h2.05v22.12c0,.58-.22,1.05-.67,1.41s-.99.53-1.61.53Z"/>
          <path class="cls-14" d="M866.19,67.81v-13.77c-.91,1.52-1.9,2.93-2.98,4.24l-1.39-1.11c1.43-1.83,2.84-4.12,4.22-6.88,1.38-2.76,2.27-5.14,2.67-7.13l2.17.39c-.49,1.94-1.53,4.48-3.12,7.61h.46v16.64h-2.02ZM877.29,67.58v-18.18h-2.04c-1.23,2.78-2.68,5.17-4.33,7.18l-1.5-1.07c1.51-1.93,2.75-4.05,3.71-6.34.96-2.29,1.63-4.31,2.01-6.06l2.17.36c-.38,1.45-.85,2.89-1.4,4.32h12.43v1.61h-8.93v4.17h8.11v1.63h-8.11v4.06h8.26v1.66h-8.26v6.65h-2.12Z"/>
        </g>
        <g>
          <path class="cls-2" d="M901.81,152.29v-18.45c0-2.29-1.86-4.15-4.15-4.15h-67.6c-2.29,0-4.15,1.86-4.15,4.15v18.45"/>
          <line class="cls-2" x1="848.51" y1="164.99" x2="879.06" y2="164.99"/>
          <g>
            <g>
              <g>
                <path class="cls-2" d="M891.98,160.65v-10.06c0-1.02-.83-1.85-1.85-1.85h0c-1.02,0-1.85.83-1.85,1.85v13.09"/>
                <path class="cls-2" d="M895.68,160.65v-2.86c0-1.02-.83-1.85-1.85-1.85h0"/>
                <path class="cls-2" d="M899.38,160.65v-1.64c0-1.02-.83-1.85-1.85-1.85h0"/>
                <path class="cls-2" d="M900.07,178.87c-.07-3.4.2-4.05.2-4.05,0,0,.17-.85.51-1.93,1.07-3.34,1.65-6.81,1.75-10.31v-1.56c.01-1.02-.81-1.85-1.84-1.85h0"/>
                <path class="cls-2" d="M884.97,158.17h0c-1.09,0-1.67.62-1.85,1.23-.02.06-.03.11-.05.17-.15.62-.07,1.27.18,1.86.43,1.05,1.11,3.18.74,6.01-.22,1.64.17,3.3,1.11,4.66.59.86,1.31,1.84,2.05,2.74,0,0,1.83,1.81,1.83,4.03"/>
                <line class="cls-2" x1="900.7" y1="159.17" x2="899.38" y2="159.17"/>
                <line class="cls-2" x1="897.53" y1="157.17" x2="895.57" y2="157.17"/>
                <line class="cls-2" x1="893.83" y1="155.94" x2="891.98" y2="155.94"/>
              </g>
              <path class="cls-2" d="M886.89,187.95v-8.04c0-.58.47-1.05,1.05-1.05h13.19c.58,0,1.05.47,1.05,1.05v8.04"/>
            </g>
            <g>
              <g>
                <path class="cls-2" d="M835.72,160.65v-10.06c0-1.02.83-1.85,1.85-1.85h0c1.02,0,1.85.83,1.85,1.85v13.09"/>
                <path class="cls-2" d="M832.03,160.65v-2.86c0-1.02.83-1.85,1.85-1.85h0"/>
                <path class="cls-2" d="M828.33,160.65v-1.64c0-1.02.83-1.85,1.85-1.85h0"/>
                <path class="cls-2" d="M827.63,178.87c.07-3.4-.2-4.05-.2-4.05,0,0-.17-.85-.51-1.93-1.07-3.34-1.65-6.81-1.75-10.31v-1.56c-.01-1.02.81-1.85,1.84-1.85h0"/>
                <path class="cls-2" d="M842.74,158.17h0c1.09,0,1.67.62,1.85,1.23.02.06.03.11.05.17.15.62.07,1.27-.18,1.86-.43,1.05-1.11,3.18-.74,6.01.22,1.64-.17,3.3-1.11,4.66-.59.86-1.31,1.84-2.05,2.74,0,0-1.83,1.81-1.83,4.03"/>
                <line class="cls-2" x1="827.01" y1="159.17" x2="828.33" y2="159.17"/>
                <line class="cls-2" x1="830.18" y1="157.17" x2="832.14" y2="157.17"/>
                <line class="cls-2" x1="833.88" y1="155.94" x2="835.72" y2="155.94"/>
              </g>
              <path class="cls-2" d="M840.82,187.95v-8.04c0-.58-.47-1.05-1.05-1.05h-13.19c-.58,0-1.05.47-1.05,1.05v8.04"/>
            </g>
          </g>
          <path class="cls-2" d="M863.78,129.69h0c0-2.73,2.21-4.94,4.94-4.94h9.53c2.2,0,3.99-1.78,3.99-3.99h0c0-2.2-1.78-3.99-3.99-3.99h-29.68c-3.1,0-5.61-2.51-5.61-5.61h0"/>
          <rect class="cls-13" x="832.15" y="135.19" width="4.33" height="4.33"/>
          <rect class="cls-10" x="841.99" y="135.19" width="4.33" height="4.33"/>
          <rect class="cls-13" x="851.84" y="135.19" width="4.33" height="4.33"/>
          <rect class="cls-10" x="861.69" y="135.19" width="4.33" height="4.33"/>
          <rect class="cls-13" x="871.53" y="135.19" width="4.33" height="4.33"/>
          <rect class="cls-10" x="881.38" y="135.19" width="4.33" height="4.33"/>
          <rect class="cls-13" x="891.23" y="135.19" width="4.33" height="4.33"/>
          <rect class="cls-10" x="851.84" y="145.23" width="4.33" height="4.33"/>
          <rect class="cls-13" x="861.69" y="145.23" width="4.33" height="4.33"/>
          <rect class="cls-10" x="871.53" y="145.23" width="4.33" height="4.33"/>
        </g>
      </g>
      <g>
        <rect class="cls-12" x="1018.1" y="8.77" width="193.5" height="191.96"/>
        <g>
          <rect class="cls-5" x="1087.53" y="38.35" width="61.43" height="33.59"/>
          <path class="cls-14" d="M1092.61,64.31v-11.27l-4.14.3-.26-1.66c.28,0,.76-.01,1.44-.04.74-.94,1.5-1.98,2.29-3.09-1.2-1.38-2.39-2.65-3.59-3.81l1.15-1.24.51.49c1.19-1.61,2.1-3.13,2.74-4.55l1.86.7c-.94,1.57-2.11,3.21-3.52,4.9.83.82,1.47,1.48,1.93,1.97,1.24-1.82,2.14-3.28,2.69-4.39l1.89.77c-2.02,3.1-3.99,5.81-5.88,8.15l4.48-.27c-.28-.92-.5-1.59-.66-2.02l1.62-.42c.37,1.09.83,2.56,1.38,4.4l-1.63.42-.28-1.01c-.41.06-1.09.14-2.04.23v11.45h-1.97ZM1089.82,61.98l-1.58-.39c.66-2.1,1.04-4.31,1.16-6.65l1.81.23c-.11,1.16-.3,2.45-.58,3.87-.28,1.42-.55,2.4-.81,2.95ZM1096.47,60.07c-.39-2.71-.58-4.36-.58-4.95l1.58-.2c.11,1.29.33,2.93.67,4.94l-1.67.22ZM1111.23,63.87h-3.33l-.27-1.82h2.7c.71,0,1.07-.33,1.07-.99v-15.35h-4.27c.13,1.7.52,3.45,1.17,5.26.66,1.8,1.6,3.39,2.82,4.76l-1.05,1.46c-1.88-2-3.1-4.51-3.67-7.53-.56,3.23-1.86,5.81-3.91,7.73l-.96-1.24c1.12-1.15,1.99-2.67,2.59-4.54.6-1.88.95-3.84,1.04-5.89h-3.87v18.41h-1.96v-19.94h5.79v-4.31h2.08v4.31h6.21v17.63c0,.59-.22,1.08-.65,1.47s-.94.58-1.52.58Z"/>
          <path class="cls-14" d="M1124.99,63.02h-5.98v.99h-2.09v-11.47h10.15v11.47h-2.08v-.99ZM1119.01,61.42h5.98v-7.25h-5.98v7.25ZM1119.97,49.9v-8.99h17.56v8.99h-17.56ZM1135.41,42.55h-13.34v5.75h13.34v-5.75ZM1138.69,63.02h-6.18v.99h-2.08v-11.47h10.37v11.47h-2.11v-.99ZM1132.51,61.42h6.18v-7.25h-6.18v7.25Z"/>
        </g>
        <polyline class="cls-2" points="1115.87 188.44 1086.42 178.1 1086.42 140.24"/>
        <line class="cls-2" x1="1086.42" y1="140.24" x2="1102.17" y2="145.77"/>
        <polyline class="cls-2" points="1115.87 165.1 1115.87 188.44 1145.32 178.1 1145.32 140.24"/>
        <line class="cls-2" x1="1145.32" y1="140.24" x2="1129.57" y2="145.77"/>
        <polyline class="cls-2" points="1086.42 140.24 1109.54 134.32 1115.87 132.7 1145.32 140.24"/>
        <circle class="cls-2" cx="1115.87" cy="150.58" r="10.84" transform="translate(27.32 438.49) rotate(-22.5)"/>
        <line class="cls-2" x1="1115.87" y1="158.2" x2="1115.87" y2="148.58"/>
        <polyline class="cls-2" points="1112.78 147.31 1115.88 144.22 1118.96 147.3"/>
        <polyline class="cls-2" points="1086.42 140.24 1081.96 127.73 1111.4 120.19 1115.87 132.7"/>
        <polyline class="cls-2" points="1145.32 140.24 1149.78 127.73 1120.33 120.19 1118 126.74"/>
        <path class="cls-10" d="M1141.83,159.33h0c-2.55,8.62-7.85,16.17-15.11,21.48l-.3.22,15.4-5.41v-16.29Z"/>
        <path class="cls-10" d="M1089.62,159.33h0c2.55,8.62,7.85,16.17,15.11,21.48l.3.22-15.4-5.41v-16.29Z"/>
      </g>
      <g>
        <polygon class="cls-11" points="677.32 199.73 515.23 199.73 515.23 10.84 677.32 10.84 719.48 107.64 677.32 199.73"/>
        <g>
          <rect class="cls-5" x="556.21" y="41.74" width="115.18" height="38.2"/>
          <path class="cls-14" d="M567.29,66.31l.36-1.66c1.09.32,2.06.49,2.92.49,1.23,0,2.24-.39,3.02-1.17.78-.78,1.2-1.9,1.24-3.36-.04-1.59-.58-2.8-1.61-3.63-1.03-.83-2.69-1.24-5.01-1.24-1.01,0-2.1.17-3.28.51v8.11c0,1.73-1.17,2.59-3.52,2.59-1.23,0-2.25-.44-3.04-1.33-.8-.89-1.19-2.01-1.19-3.37,0-1.49.52-2.88,1.55-4.14,1.03-1.27,2.38-2.25,4.06-2.96v-4.78h-4.62v-1.77h4.56v-4.37h2.21v4.37h5.29v1.77h-5.29v4.06c1.2-.31,2.28-.47,3.24-.47,2.7,0,4.82.6,6.37,1.81,1.55,1.21,2.32,2.83,2.32,4.89.04,1.94-.5,3.49-1.6,4.64-1.1,1.15-2.53,1.73-4.27,1.73-1.48,0-2.71-.24-3.71-.72ZM562.84,57.29c-1.11.54-1.99,1.23-2.65,2.08-.66.85-.99,1.77-.99,2.77s.25,1.68.74,2.18c.49.5,1.01.75,1.56.75.9,0,1.35-.41,1.35-1.24v-6.53ZM577.97,51.03l-1.74,1.24c-1.67-2.19-3.79-4.19-6.34-6.02l1.42-1.26c1.12.71,2.31,1.66,3.58,2.84s2.3,2.25,3.08,3.19Z"/>
          <path class="cls-14" d="M580.17,67.71l-.5-1.55c2.27-.3,4.17-1.01,5.7-2.14s2.39-2.76,2.59-4.88h-4.6v-15.37h18.72v15.37h-5.8v5.36c0,.4.16.68.47.86.31.18,1.21.26,2.69.26.14,0,.59-.02,1.34-.06s1.21-.09,1.4-.16.36-.19.51-.39c.15-.2.27-.56.35-1.09s.13-1.37.13-2.53l1.77.28v3.27c0,.68-.23,1.21-.69,1.59s-1.14.6-2.05.66c-.91.06-1.75.09-2.52.09-.53,0-1.25-.02-2.15-.05-.9-.04-1.48-.08-1.71-.13s-.49-.18-.74-.37c-.26-.19-.46-.45-.61-.76s-.22-.68-.22-1.11v-5.72h-4.12c-.21,1.67-.65,3.03-1.33,4.08-.68,1.05-1.76,1.99-3.25,2.83s-3.27,1.39-5.35,1.65ZM585.36,48.4h14.71v-3.08h-14.71v3.08ZM585.36,52.91h14.71v-3.01h-14.71v3.01ZM600.08,54.35h-14.71v3.27h14.71v-3.27Z"/>
          <path class="cls-14" d="M607.89,62.31l-1.27-.88c.7-.95,1.52-2.4,2.46-4.33s1.62-3.61,2.04-5.04h-3.63v-1.51h3.75v-4.43c-1.4.31-2.55.52-3.47.65l-.39-1.55c3.08-.4,5.66-1.05,7.75-1.94l.99,1.46c-.79.31-1.75.61-2.88.9v4.91h2.48v1.51h-2.48v1.9c.67.84,1.8,1.95,3.39,3.35l-1.11,1.53c-.49-.5-1.25-1.33-2.28-2.47v11.32h-2v-11.26c-1.14,2.53-2.26,4.49-3.36,5.87ZM616.49,67.73l-.73-1.42c2.33-.67,4.22-1.44,5.67-2.28l1.3,1.35c-1.84,1.07-3.92,1.85-6.24,2.35ZM616.75,51.88v-1.39h7.05v-1.66h-5.8v-1.38h5.8v-1.61h-6.42v-1.47h6.42v-1.4h2.04v1.4h6.63v1.47h-6.63v1.61h5.83v1.38h-5.83v1.66h7.18v1.39h-16.26ZM617.96,63.8v-10.39h13.7v10.39h-13.7ZM619.93,56.33h9.76v-1.66h-9.76v1.66ZM619.93,59.29h9.76v-1.71h-9.76v1.71ZM629.69,60.53h-9.76v1.89h9.76v-1.89ZM632.39,67.73c-2.09-.67-3.96-1.5-5.63-2.51l1.12-1.21c1.81.98,3.65,1.72,5.53,2.23l-1.03,1.5Z"/>
          <path class="cls-14" d="M638.49,67.56l-.42-1.77c3.13-.31,5.55-1.17,7.26-2.59,1.71-1.42,2.61-4.02,2.71-7.79.03-2.25-.25-4.18-.82-5.78s-1.53-2.46-2.88-2.56c-.8.02-1.62.45-2.46,1.31-.84.85-1.66,2.28-2.44,4.28-.79,2-1.23,4.44-1.34,7.32l-1.92.12c-.33-2.07-.5-4.4-.5-6.98.18-3.3.53-6.31,1.05-9.03l2.13.19c-.6,3.26-1.05,6.25-1.35,8.99h.15c.69-2.45,1.63-4.37,2.8-5.77,1.17-1.4,2.54-2.1,4.1-2.11,1.88,0,3.27.87,4.16,2.62.9,1.75,1.33,4.25,1.32,7.52-.07,4.21-1.08,7.21-3.01,8.99-1.93,1.78-4.78,2.8-8.54,3.05Z"/>
        </g>
        <g>
          <g>
            <rect class="cls-7" x="635.33" y="101.91" width="7.06" height="42.51" transform="translate(1186.88 473.87) rotate(-158.3)"/>
            <path class="cls-7" d="M627.98,142.48h1.51c1.53,0,2.77,1.24,2.77,2.77v9.46h-7.06v-9.46c0-1.53,1.24-2.77,2.77-2.77Z" transform="translate(1157.95 519.19) rotate(-158.3)"/>
            <line class="cls-7" x1="626.48" y1="154.28" x2="623.85" y2="160.89"/>
            <path class="cls-7" d="M644.5,96.61h7.06v4.29c0,1.53-1.24,2.77-2.77,2.77h-1.51c-1.53,0-2.77-1.24-2.77-2.77v-4.29h0Z" transform="translate(1213.09 432.83) rotate(-158.3)"/>
          </g>
          <polyline class="cls-7" points="644.55 134.15 644.55 171.12 560.99 171.12 560.99 118.12 631.3 118.12"/>
          <line class="cls-4" x1="618.17" y1="160.89" x2="575.64" y2="160.89"/>
          <path class="cls-10" d="M618.17,129.8h-22.87c-1.02,0-1.85-.67-1.85-1.5s.83-1.5,1.85-1.5h22.87c1.02,0,1.85.67,1.85,1.5s-.83,1.5-1.85,1.5Z"/>
          <path class="cls-10" d="M618.17,137.2h-22.87c-1.02,0-1.85-.67-1.85-1.5s.83-1.5,1.85-1.5h22.87c1.02,0,1.85.67,1.85,1.5s-.83,1.5-1.85,1.5Z"/>
          <path class="cls-10" d="M618.17,144.59h-22.87c-1.02,0-1.85-.67-1.85-1.5s.83-1.5,1.85-1.5h22.87c1.02,0,1.85.67,1.85,1.5s-.83,1.5-1.85,1.5Z"/>
          <g>
            <g>
              <polyline class="cls-6" points="570.05 127.19 573.39 132.55 575.83 136.46"/>
              <polyline class="cls-6" points="581.62 127.19 578.34 132.44 575.83 136.46 575.83 147.21"/>
            </g>
            <line class="cls-6" x1="571.6" y1="136.16" x2="580.06" y2="136.16"/>
            <line class="cls-6" x1="571.6" y1="139.66" x2="580.06" y2="139.66"/>
          </g>
        </g>
      </g>
    </g>
  </g>
</svg>