<?xml version="1.0" encoding="UTF-8" standalone="no"?>
<!DOCTYPE svg PUBLIC "-//W3C//DTD SVG 1.1//EN" "http://www.w3.org/Graphics/SVG/1.1/DTD/svg11.dtd">
<svg width="100%" height="100%" viewBox="0 0 1231 215" version="1.1" xmlns="http://www.w3.org/2000/svg" xmlns:xlink="http://www.w3.org/1999/xlink" xml:space="preserve" xmlns:serif="http://www.serif.com/" style="fill-rule:evenodd;clip-rule:evenodd;stroke-miterlimit:10;">
    <g id="納品">
        <g transform="matrix(-1,0,0,1,2232.69,-5.5039)">
            <rect x="1018.1" y="14.272" width="193.496" height="191.96" style="fill:white;stroke:rgb(40,152,140);stroke-width:2px;"/>
        </g>
        <g transform="matrix(0.399723,0,0,0.399723,1060.6,70.4091)">
            <g transform="matrix(1,0,0,1,246.027,220.696)">
                <path d="M0,7.294L-71.602,41.794C-76.785,44.107 -82.676,44.671 -88.204,43.387L-156.283,19.807L-162.736,19.807L-162.736,-27.935L-137.543,-27.935L-81.405,-5.871C-77.995,-4.425 -70.266,-0.337 -72.12,6.279C-74.199,12.898 -82.174,14.095 -86.058,13.273L-126.589,1.515L-128.121,6.796L-87.5,18.581L-87.329,18.625C-80.889,20.058 -69.926,17.646 -66.849,7.846C-66.791,7.643 -66.739,7.44 -66.692,7.238L-6.383,-10.984C-2.811,-12.082 0.911,-11.832 3.578,-10.317C4.807,-9.619 6.39,-8.304 6.95,-6.006L6.986,-5.873C8.283,-1.513 6.052,4.593 0,7.294M-168.236,27.906C-168.236,29.521 -169.55,30.834 -171.164,30.834L-196.5,30.834C-198.114,30.834 -199.427,29.521 -199.427,27.906L-199.427,-33.835C-199.427,-35.449 -198.114,-36.763 -196.5,-36.763L-171.164,-36.763C-169.55,-36.763 -168.236,-35.449 -168.236,-33.835L-168.236,27.906ZM12.277,-7.376C11.465,-10.627 9.343,-13.367 6.295,-15.1C2.279,-17.382 -2.933,-17.798 -7.985,-16.246L-66.667,1.485C-67.85,-3.539 -72.241,-7.958 -79.325,-10.962L-136.501,-33.435L-162.736,-33.435L-162.736,-33.835C-162.736,-38.482 -166.517,-42.263 -171.164,-42.263L-196.5,-42.263C-201.146,-42.263 -204.927,-38.482 -204.927,-33.835L-204.927,27.906C-204.927,32.554 -201.146,36.334 -196.5,36.334L-171.164,36.334C-166.517,36.334 -162.736,32.554 -162.736,27.906L-162.736,25.307L-157.208,25.307L-89.871,48.63L-89.606,48.707C-87.217,49.274 -84.771,49.557 -82.322,49.557C-77.871,49.557 -73.413,48.624 -69.288,46.783L2.313,12.283C10.249,8.743 14.522,0.301 12.277,-7.376" style="fill:rgb(70,65,64);fill-rule:nonzero;"/>
            </g>
            <g transform="matrix(1,0,0,1,0,-98.06)">
                <path d="M112.476,173.654L235.798,173.654L235.798,203.621L112.476,203.621L112.476,173.654ZM137.647,166.253C128.239,154.508 125.66,140.284 132.016,135.191C133.613,133.912 135.648,133.309 137.952,133.309C144.817,133.309 154.056,138.67 161.101,147.464C166.566,154.288 169.708,161.936 170.146,168.154L139.277,168.154C138.726,167.535 138.176,166.913 137.647,166.253M187.174,147.464C191.97,141.477 197.793,136.954 203.569,134.727C206.016,133.784 208.297,133.314 210.33,133.314C212.679,133.314 214.697,133.942 216.257,135.191C219.167,137.522 220.312,141.884 219.479,147.473C218.566,153.596 215.423,160.266 210.626,166.253C210.098,166.912 209.548,167.535 208.995,168.154L178.125,168.154C178.164,167.535 178.223,166.902 178.321,166.244C179.233,160.121 182.377,153.452 187.174,147.464M222.916,268.858L189.945,268.858L189.945,209.121L222.916,209.121L222.916,268.858ZM184.445,268.858L163.829,268.858L163.829,209.121L184.445,209.121L184.445,268.858ZM125.358,209.121L158.329,209.121L158.329,268.858L125.358,268.858L125.358,209.121ZM109.726,209.121L119.858,209.121L119.858,271.608C119.858,273.126 121.09,274.358 122.608,274.358L225.666,274.358C227.185,274.358 228.416,273.126 228.416,271.608L228.416,209.121L238.548,209.121C240.066,209.121 241.298,207.89 241.298,206.371L241.298,170.904C241.298,169.386 240.066,168.154 238.548,168.154L216.103,168.154C220.83,161.813 223.944,154.821 224.919,148.284C226.052,140.679 224.197,134.505 219.696,130.899C215.194,127.292 208.767,126.831 201.591,129.595C194.921,132.166 188.276,137.291 182.881,144.026C178.849,149.06 175.847,154.579 174.147,159.998C172.491,154.73 169.555,149.221 165.394,144.026C153.732,129.47 137.561,123.702 128.578,130.899C119.909,137.843 121.563,153.954 132.169,168.154L109.726,168.154C108.208,168.154 106.976,169.386 106.976,170.904L106.976,206.371C106.976,207.89 108.208,209.121 109.726,209.121" style="fill:rgb(70,65,64);fill-rule:nonzero;"/>
            </g>
        </g>
        <g transform="matrix(1,0,0,1,5.33333,-4.6112)">
            <text x="1087.53px" y="62.618px" style="font-family:'MeiryoUI', 'Meiryo UI';font-size:25px;fill:rgb(51,51,51);">納品</text>
        </g>
    </g>
    <g id="矢印" transform="matrix(1,0,0,1,756.5,1)">
        <g transform="matrix(1,0,0,1,219.534,105.977)">
            <path d="M0,0L42.113,0" style="fill:none;fill-rule:nonzero;stroke:rgb(7,16,19);stroke-width:3px;stroke-linecap:round;stroke-linejoin:round;stroke-miterlimit:4;stroke-dasharray:0,6;"/>
        </g>
        <g transform="matrix(1,0,0,1,256.18,99.2307)">
            <path d="M0,13.495L-1.126,12.287L4.834,6.748L-1.126,1.209L0,0L7.257,6.748L0,13.495Z" style="fill:rgb(7,16,19);fill-rule:nonzero;"/>
        </g>
    </g>
    <g id="制作検証">
        <g transform="matrix(1,0,0,1,932.068,10.3036)">
            <path d="M0,188.889L-162.09,188.889L-162.09,0L0,0L42.155,96.806L0,188.889Z" style="fill:white;fill-rule:nonzero;stroke:rgb(40,152,140);stroke-width:2px;"/>
        </g>
        <g transform="matrix(0.394501,0,0,0.394501,803.79,71.1403)">
            <g transform="matrix(1,0,0,1,0,-109.548)">
                <path d="M169.92,190.018L187.622,190.018L187.622,228.8L169.92,228.8L169.92,190.018ZM175.521,244.101L182.021,244.101L182.021,235.3L194.122,235.3L194.122,183.518L182.021,183.518L182.021,165.447L175.521,165.447L175.521,183.518L163.42,183.518L163.42,235.3L175.521,235.3L175.521,244.101Z" style="fill:rgb(70,65,64);fill-rule:nonzero;"/>
            </g>
            <g transform="matrix(1,0,0,1,210.147,78.9174)">
                <path d="M0,70.221L6.5,70.221L6.5,39.682L15.351,39.682L15.351,9.812L6.5,9.812L6.5,0L0,0L0,9.812L-8.85,9.812L-8.85,39.682L0,39.682L0,70.221Z" style="fill:rgb(70,65,64);fill-rule:nonzero;"/>
            </g>
            <g transform="matrix(1,0,0,1,0,-122.431)">
                <path d="M256.875,227.021L239.174,227.021L239.174,197.069L256.875,197.069L256.875,227.021ZM251.274,190.569L251.274,181.401L244.774,181.401L244.774,190.569L232.674,190.569L232.674,233.521L244.774,233.521L244.774,241.03L251.274,241.03L251.274,233.521L263.375,233.521L263.375,190.569L251.274,190.569Z" style="fill:rgb(70,65,64);fill-rule:nonzero;"/>
            </g>
            <g transform="matrix(1,0,0,1,252.989,222.584)">
                <path d="M0,-74.875C-1.808,-75.569 -3.83,-74.67 -4.524,-72.867L-30.147,-6.306L-110.677,-6.306C-112.61,-6.306 -114.177,-4.739 -114.177,-2.806C-114.177,-0.874 -112.61,0.694 -110.677,0.694L-27.744,0.694C-26.296,0.694 -24.998,-0.198 -24.477,-1.548L2.009,-70.351C2.703,-72.156 1.804,-74.181 0,-74.875" style="fill:rgb(70,65,64);fill-rule:nonzero;"/>
            </g>
            <g transform="matrix(1,0,0,1,134.162,176.268)">
                <path d="M0,22.618L-9.33,10.389C-10.141,9.327 -11.485,8.82 -12.793,9.079C-14.103,9.339 -15.15,10.32 -15.495,11.61L-28.624,60.833L-89.482,60.833L-67.023,-23.366C-64.691,-32.109 -56.744,-38.215 -47.696,-38.215L-28.242,-38.215C-19.679,-38.215 -13.532,-35.271 -11.446,-32.536L14.819,1.886C15.413,2.665 16.308,3.159 17.284,3.248L57.925,6.95C60.705,7.204 63.221,8.524 65.008,10.67C66.794,12.814 67.639,15.527 67.386,18.307C66.892,23.724 62.197,27.866 56.779,27.809L8.515,26.896C5.153,26.832 2.045,25.266 0,22.618M56.655,34.808C56.751,34.809 56.847,34.81 56.941,34.81C65.92,34.81 73.541,27.892 74.356,18.942C74.779,14.3 73.369,9.77 70.386,6.189C67.402,2.607 63.202,0.402 58.559,-0.021L19.451,-3.583L-5.88,-36.782C-9.789,-41.905 -18.566,-45.215 -28.242,-45.215L-47.696,-45.215C-59.91,-45.215 -70.639,-36.972 -73.787,-25.171L-97.419,63.431C-97.699,64.481 -97.475,65.602 -96.813,66.465C-96.15,67.327 -95.125,67.833 -94.037,67.833L-25.935,67.833C-24.349,67.833 -22.962,66.766 -22.553,65.235L-10.569,20.305L-5.554,26.879C-2.192,31.233 2.888,33.791 8.382,33.894L56.655,34.808Z" style="fill:rgb(70,65,64);fill-rule:nonzero;"/>
            </g>
            <g transform="matrix(1,0,0,1,107.591,119.43)">
                <path d="M0,-50.384C13.891,-50.384 25.192,-39.083 25.192,-25.192C25.192,-11.301 13.891,-0 0,-0C-13.891,-0 -25.192,-11.301 -25.192,-25.192C-25.192,-39.083 -13.891,-50.384 0,-50.384M0,7C17.751,7 32.192,-7.442 32.192,-25.192C32.192,-42.943 17.751,-57.384 0,-57.384C-17.75,-57.384 -32.192,-42.943 -32.192,-25.192C-32.192,-7.442 -17.75,7 0,7" style="fill:rgb(70,65,64);fill-rule:nonzero;"/>
            </g>
        </g>
        <g transform="matrix(1,0,0,1,-26.6667,-4.86708)">
            <g transform="matrix(25,0,0,25,946.441,66.0117)">
            </g>
            <text x="833.941px" y="66.012px" style="font-family:'MeiryoUI', 'Meiryo UI';font-size:25px;fill:rgb(51,51,51);">制作・検証</text>
        </g>
    </g>
    <g id="矢印1" serif:id="矢印" transform="matrix(1,0,0,1,501,1)">
        <g transform="matrix(1,0,0,1,219.534,105.977)">
            <path d="M0,0L42.113,0" style="fill:none;fill-rule:nonzero;stroke:rgb(7,16,19);stroke-width:3px;stroke-linecap:round;stroke-linejoin:round;stroke-miterlimit:4;stroke-dasharray:0,6;"/>
        </g>
        <g transform="matrix(1,0,0,1,256.18,99.2307)">
            <path d="M0,13.495L-1.126,12.287L4.834,6.748L-1.126,1.209L0,0L7.257,6.748L0,13.495Z" style="fill:rgb(7,16,19);fill-rule:nonzero;"/>
        </g>
    </g>
    <g id="見積">
        <g transform="matrix(1,0,0,1,677.321,10.3036)">
            <path d="M0,188.889L-162.09,188.889L-162.09,0L0,0L42.155,96.806L0,188.889Z" style="fill:white;fill-rule:nonzero;stroke:rgb(50,147,147);stroke-width:2px;"/>
        </g>
        <g transform="matrix(0.323646,0,0,0.323646,553.218,83.7893)">
            <g transform="matrix(1,0,0,1,222.057,44)">
                <path d="M0,212C-18.858,212 -34.201,196.657 -34.201,177.799C-34.201,175.59 -35.992,173.799 -38.201,173.799L-120.526,173.799L-120.526,0L34.201,0L34.201,177.799C34.201,196.657 18.858,212 0,212M-144.113,212C-161.619,212 -176.096,198.78 -178.082,181.799L-42.014,181.799C-40.841,194.203 -34.277,205.063 -24.697,212L-144.113,212ZM38.201,-8L-124.526,-8C-126.735,-8 -128.526,-6.209 -128.526,-4L-128.526,173.799L-182.314,173.799C-184.523,173.799 -186.314,175.59 -186.314,177.799C-186.314,201.068 -167.383,220 -144.113,220L0.069,220C23.308,219.963 42.201,201.046 42.201,177.799L42.201,-4C42.201,-6.209 40.41,-8 38.201,-8" style="fill:rgb(70,65,64);fill-rule:nonzero;"/>
            </g>
            <g transform="matrix(1,0,0,1,0,-118.564)">
                <rect x="131.4" y="205.282" width="94.987" height="8" style="fill:rgb(70,65,64);"/>
            </g>
            <g transform="matrix(1,0,0,1,0,-41.566)">
                <rect x="131.4" y="166.783" width="80.675" height="8" style="fill:rgb(70,65,64);"/>
            </g>
            <g transform="matrix(1,0,0,1,0,35.432)">
                <rect x="131.4" y="128.284" width="66.361" height="8" style="fill:rgb(70,65,64);"/>
            </g>
        </g>
        <g transform="matrix(1,0,0,1,-0.5,-1.42577)">
            <text x="556.211px" y="66.012px" style="font-family:'MeiryoUI', 'Meiryo UI';font-size:25px;fill:rgb(51,51,51);">お見積り</text>
        </g>
    </g>
    <g transform="matrix(1,0,0,1,249,1)">
        <g transform="matrix(1,0,0,1,219.534,105.977)">
            <path d="M0,0L42.113,0" style="fill:none;fill-rule:nonzero;stroke:rgb(7,16,19);stroke-width:3px;stroke-linecap:round;stroke-linejoin:round;stroke-miterlimit:4;stroke-dasharray:0,6;"/>
        </g>
        <g transform="matrix(1,0,0,1,256.18,99.2307)">
            <path d="M0,13.495L-1.126,12.287L4.834,6.748L-1.126,1.209L0,0L7.257,6.748L0,13.495Z" style="fill:rgb(7,16,19);fill-rule:nonzero;"/>
        </g>
    </g>
    <g id="打ち合わせ">
        <g transform="matrix(0.995104,0,0,1,425.566,10.3036)">
            <path d="M0,188.889L-162.09,188.889L-162.09,0L0,0L42.155,96.806L0,188.889Z" style="fill:white;fill-rule:nonzero;stroke:rgb(40,152,140);stroke-width:2px;"/>
        </g>
        <g transform="matrix(1,0,0,1,-2.6,3.6)">
            <g transform="matrix(1,0,0,0.927928,0,6.79096)">
                <path d="M367.85,86.825L371.55,83.125L371.55,94.225L367.6,90.275" style="fill:none;stroke:rgb(40,152,140);stroke-width:2.07px;stroke-linecap:round;stroke-linejoin:round;stroke-miterlimit:1.5;"/>
            </g>
            <g transform="matrix(1,0,0,1,6.4,-5.4)">
                <rect x="348.45" y="89.425" width="12.6" height="10.8" style="fill:none;stroke:rgb(40,152,140);stroke-width:2px;stroke-linecap:round;stroke-linejoin:round;stroke-miterlimit:1.5;"/>
            </g>
            <g transform="matrix(1.05263,0,0,1,-95.8644,-8.4)">
                <ellipse cx="435.375" cy="97.375" rx="14.25" ry="15" style="fill:none;stroke:rgb(40,152,140);stroke-width:1.95px;stroke-linecap:round;stroke-linejoin:round;stroke-miterlimit:1.5;"/>
            </g>
        </g>
        <g transform="matrix(0.45358,0,0,0.45358,291.766,76.9568)">
            <g transform="matrix(1,0,0,1,227.15,127.256)">
                <path d="M0,-32.53C8.969,-32.53 16.265,-25.234 16.265,-16.265C16.265,-7.297 8.969,0 0,0C-8.969,0 -16.265,-7.297 -16.265,-16.265C-16.265,-25.234 -8.969,-32.53 0,-32.53M0,6C12.276,6 22.265,-3.988 22.265,-16.265C22.265,-28.542 12.276,-38.53 0,-38.53C-12.276,-38.53 -22.265,-28.542 -22.265,-16.265C-22.265,-3.988 -12.276,6 0,6" style="fill:rgb(70,65,64);fill-rule:nonzero;"/>
            </g>
            <g transform="matrix(1,0,0,1,233.459,210.489)">
                <path d="M0,-73.38L-19.842,-73.38C-26.58,-73.38 -33.052,-70.901 -38.108,-66.359L-62.857,-43.244L-74.972,-39.171C-73.087,-37.925 -71.462,-36.329 -70.21,-34.442L-60.329,-37.764C-59.923,-37.901 -59.551,-38.122 -59.237,-38.415L-34.057,-61.935C-30.146,-65.446 -25.098,-67.38 -19.842,-67.38L0,-67.38C12.98,-67.38 23.541,-56.819 23.541,-43.839L23.541,-3C23.541,-1.343 24.884,0 26.541,0C28.198,0 29.541,-1.343 29.541,-3L29.541,-43.839C29.541,-60.128 16.289,-73.38 0,-73.38" style="fill:rgb(70,65,64);fill-rule:nonzero;"/>
            </g>
            <g transform="matrix(1,0,0,1,203.976,210.794)">
                <path d="M0,-45.279C-1.084,-45.759 -2.349,-45.556 -3.229,-44.761L-21.269,-28.448L-37.941,-24.185C-38.105,-21.876 -38.753,-19.603 -39.86,-17.502L-19.063,-22.819C-18.592,-22.939 -18.156,-23.174 -17.794,-23.501L-4.217,-35.779L-4.217,-2.52C-4.217,-0.863 -2.874,0.48 -1.217,0.48C0.44,0.48 1.783,-0.863 1.783,-2.52L1.783,-42.537C1.783,-43.722 1.084,-44.798 0,-45.279" style="fill:rgb(70,65,64);fill-rule:nonzero;"/>
            </g>
            <g transform="matrix(1,0,0,1,72.8496,127.256)">
                <path d="M0,-32.53C8.968,-32.53 16.265,-25.234 16.265,-16.265C16.265,-7.297 8.968,0 0,0C-8.968,0 -16.265,-7.297 -16.265,-16.265C-16.265,-25.234 -8.968,-32.53 0,-32.53M0,6C12.277,6 22.265,-3.988 22.265,-16.265C22.265,-28.542 12.277,-38.53 0,-38.53C-12.277,-38.53 -22.265,-28.542 -22.265,-16.265C-22.265,-3.988 -12.277,6 0,6" style="fill:rgb(70,65,64);fill-rule:nonzero;"/>
            </g>
            <g transform="matrix(1,0,0,1,152.639,173.325)">
                <path d="M0,1.734L-23.24,-6.079L-48.032,-29.233C-53.046,-33.736 -59.518,-36.215 -66.256,-36.215L-86.098,-36.215C-102.387,-36.215 -115.639,-22.963 -115.639,-6.674L-115.639,34.165C-115.639,35.822 -114.295,37.165 -112.639,37.165C-110.982,37.165 -109.639,35.822 -109.639,34.165L-109.639,-6.674C-109.639,-19.655 -99.079,-30.215 -86.098,-30.215L-66.256,-30.215C-61,-30.215 -55.952,-28.281 -52.084,-24.809L-26.86,-1.25C-26.547,-0.957 -26.175,-0.736 -25.769,-0.599L-1.913,7.421C-0.528,7.887 0.571,8.935 1.103,10.297C1.634,11.657 1.535,13.172 0.832,14.454C-0.24,16.406 -2.499,17.395 -4.634,16.873L-35.346,9.021L-53.385,-7.292C-54.265,-8.088 -55.531,-8.289 -56.615,-7.81C-57.699,-7.329 -58.397,-6.253 -58.397,-5.068L-58.397,34.949C-58.397,36.606 -57.054,37.949 -55.397,37.949C-53.741,37.949 -52.397,36.606 -52.397,34.949L-52.397,1.69L-38.82,13.968C-38.458,14.296 -38.023,14.53 -37.551,14.65L-6.094,22.692C-1.296,23.871 3.715,21.671 6.092,17.34C7.652,14.498 7.87,11.135 6.691,8.115C5.513,5.094 3.074,2.769 0,1.734" style="fill:rgb(70,65,64);fill-rule:nonzero;"/>
            </g>
        </g>
        <g transform="matrix(1,0,0,1,-19.0413,-2.68642)">
            <g transform="matrix(25,0,0,25,440.587,66.0117)">
            </g>
            <text x="308.753px" y="66.012px" style="font-family:'MeiryoUI', 'Meiryo UI';font-size:25px;fill:rgb(51,51,51);">お打ち合わせ</text>
        </g>
    </g>
    <g id="矢印2" serif:id="矢印">
        <g transform="matrix(1,0,0,1,219.534,105.977)">
            <path d="M0,0L42.113,0" style="fill:none;fill-rule:nonzero;stroke:rgb(7,16,19);stroke-width:3px;stroke-linecap:round;stroke-linejoin:round;stroke-miterlimit:4;stroke-dasharray:0,6;"/>
        </g>
        <g transform="matrix(1,0,0,1,256.18,99.2307)">
            <path d="M0,13.495L-1.126,12.287L4.834,6.748L-1.126,1.209L0,0L7.257,6.748L0,13.495Z" style="fill:rgb(7,16,19);fill-rule:nonzero;"/>
        </g>
    </g>
    <g id="問い合わせ">
        <g transform="matrix(1,0,0,1,173.684,8.7681)">
            <path d="M0,191.96L-162.09,191.96L-162.09,0L0,0L42.155,98.379L0,191.96Z" style="fill:white;fill-rule:nonzero;stroke:rgb(40,152,140);stroke-width:2px;"/>
        </g>
        <g transform="matrix(0.376485,0,0,0.325649,135.637,100.601)">
            <path d="M0,190.637C0,195.802 -4.202,200.004 -9.367,200.004L-203.633,200.004C-208.798,200.004 -213,195.802 -213,190.635L-213.077,65.546L-122.762,133.781C-117.974,137.398 -112.238,139.206 -106.5,139.206C-100.764,139.206 -95.024,137.397 -90.238,133.781L0,65.605L0,190.637ZM-184.726,38.702L-184.726,78.192L-212.894,56.912L-184.726,38.702ZM-35.44,8.111L-35.44,83.607L-94.458,128.195C-101.547,133.552 -111.45,133.553 -118.542,128.195L-177.726,83.481L-177.726,8.111L-35.44,8.111ZM-117.421,-4.81C-110.761,-8.999 -102.233,-8.975 -95.699,-4.749L-86.635,1.111L-126.579,1.111L-117.421,-4.81ZM-0.204,56.987L-28.44,78.319L-28.44,38.732L-0.204,56.987ZM-28.44,30.397L-28.44,1.111L-73.74,1.111L-91.898,-10.628C-100.713,-16.325 -112.192,-16.367 -121.185,-10.712L-139.472,1.111L-184.726,1.111L-184.726,30.366L-220.084,53.225L-220,190.637C-220,199.661 -212.658,207.004 -203.633,207.004L-9.367,207.004C-0.342,207.004 7,199.661 7,190.637L7,53.309L-28.44,30.397Z" style="fill:rgb(70,65,64);fill-rule:nonzero;"/>
        </g>
        <g transform="matrix(1,0,0,1,14.6667,-2.58773)">
            <text x="25.414px" y="67.012px" style="font-family:'MeiryoUI', 'Meiryo UI';font-size:25px;fill:rgb(51,51,51);">お問い合わせ</text>
        </g>
    </g>
</svg>
